<svg width="512" height="512" viewBox="0 0 512 512" fill="none" xmlns="http://www.w3.org/2000/svg">
<g clip-path="url(#clip0_241_16)">
<g filter="url(#filter0_i_241_16)">
<rect width="512" height="512" rx="25" fill="url(#paint0_linear_241_16)"/>
</g>
<path d="M63.4766 236.971C63.4766 202.791 71.9238 176.033 88.8184 156.697C105.811 137.264 130.176 127.547 161.914 127.547C180.469 127.547 195.801 130.721 207.91 137.068C220.02 143.318 228.711 151.912 233.984 162.85C236.719 168.514 236.279 172.42 232.666 174.568L221.094 181.307C217.188 183.553 213.721 181.697 210.693 175.74C207.471 169.588 202.197 163.826 194.873 158.455C187.549 153.084 177.051 150.398 163.379 150.398C138.965 150.398 121.191 158.016 110.059 173.25C99.0234 188.387 93.5059 209.627 93.5059 236.971C93.5059 264.314 99.0234 285.604 110.059 300.838C121.191 315.975 138.965 323.543 163.379 323.543C177.441 323.543 188.672 320.32 197.07 313.875C205.566 307.43 211.719 300.691 215.527 293.66C218.555 287.996 222.07 286.287 226.074 288.533L238.232 295.418C241.748 297.469 242.041 301.375 239.111 307.137C233.35 318.367 223.975 327.742 210.986 335.262C197.998 342.684 181.641 346.395 161.914 346.395C130.176 346.395 105.811 336.727 88.8184 317.391C71.9238 297.957 63.4766 271.15 63.4766 236.971ZM268.848 236.971C268.848 202.791 277.295 176.033 294.189 156.697C311.182 137.264 335.547 127.547 367.285 127.547C385.84 127.547 401.172 130.721 413.281 137.068C425.391 143.318 434.082 151.912 439.355 162.85C442.09 168.514 441.65 172.42 438.037 174.568L426.465 181.307C422.559 183.553 419.092 181.697 416.064 175.74C412.842 169.588 407.568 163.826 400.244 158.455C392.92 153.084 382.422 150.398 368.75 150.398C344.336 150.398 326.562 158.016 315.43 173.25C304.395 188.387 298.877 209.627 298.877 236.971C298.877 264.314 304.395 285.604 315.43 300.838C326.562 315.975 344.336 323.543 368.75 323.543C382.812 323.543 394.043 320.32 402.441 313.875C410.938 307.43 417.09 300.691 420.898 293.66C423.926 287.996 427.441 286.287 431.445 288.533L443.604 295.418C447.119 297.469 447.412 301.375 444.482 307.137C438.721 318.367 429.346 327.742 416.357 335.262C403.369 342.684 387.012 346.395 367.285 346.395C335.547 346.395 311.182 336.727 294.189 317.391C277.295 297.957 268.848 271.15 268.848 236.971Z" fill="white"/>
<path d="M84 393H428" stroke="white" stroke-width="10" stroke-linecap="round"/>
</g>
<defs>
<filter id="filter0_i_241_16" x="0" y="0" width="512" height="516" filterUnits="userSpaceOnUse" color-interpolation-filters="sRGB">
<feFlood flood-opacity="0" result="BackgroundImageFix"/>
<feBlend mode="normal" in="SourceGraphic" in2="BackgroundImageFix" result="shape"/>
<feColorMatrix in="SourceAlpha" type="matrix" values="0 0 0 0 0 0 0 0 0 0 0 0 0 0 0 0 0 0 127 0" result="hardAlpha"/>
<feMorphology radius="7" operator="erode" in="SourceAlpha" result="effect1_innerShadow_241_16"/>
<feOffset dy="4"/>
<feGaussianBlur stdDeviation="5.5"/>
<feComposite in2="hardAlpha" operator="arithmetic" k2="-1" k3="1"/>
<feColorMatrix type="matrix" values="0 0 0 0 0.552941 0 0 0 0 0.00392157 0 0 0 0 0.423529 0 0 0 0.65 0"/>
<feBlend mode="normal" in2="shape" result="effect1_innerShadow_241_16"/>
</filter>
<linearGradient id="paint0_linear_241_16" x1="96.9003" y1="48.4501" x2="274.987" y2="506.107" gradientUnits="userSpaceOnUse">
<stop stop-color="#BF7F8D"/>
<stop offset="0.20823" stop-color="#5A1C67"/>
<stop offset="0.336171" stop-color="#2C324D"/>
<stop offset="1" stop-color="#900171"/>
</linearGradient>
<clipPath id="clip0_241_16">
<rect width="512" height="512" fill="white"/>
</clipPath>
</defs>
</svg>
